<svg width="20" height="20" viewBox="0 0 20 20" fill="none" xmlns="http://www.w3.org/2000/svg">
<path d="M7.50008 13.3332C7.95841 13.3332 8.35078 13.17 8.67716 12.8436C9.00355 12.5172 9.16675 12.1248 9.16675 11.6665C9.16675 11.2082 9.00355 10.8158 8.67716 10.4894C8.35078 10.163 7.95841 9.99984 7.50008 9.99984C7.04175 9.99984 6.64939 10.163 6.323 10.4894C5.99661 10.8158 5.83341 11.2082 5.83341 11.6665C5.83341 12.1248 5.99661 12.5172 6.323 12.8436C6.64939 13.17 7.04175 13.3332 7.50008 13.3332ZM12.5001 13.3332C12.9584 13.3332 13.3508 13.17 13.6772 12.8436C14.0036 12.5172 14.1667 12.1248 14.1667 11.6665C14.1667 11.2082 14.0036 10.8158 13.6772 10.4894C13.3508 10.163 12.9584 9.99984 12.5001 9.99984C12.0417 9.99984 11.6494 10.163 11.323 10.4894C10.9966 10.8158 10.8334 11.2082 10.8334 11.6665C10.8334 12.1248 10.9966 12.5172 11.323 12.8436C11.6494 13.17 12.0417 13.3332 12.5001 13.3332ZM10.0001 9.1665C10.4584 9.1665 10.8508 9.00331 11.1772 8.67692C11.5036 8.35053 11.6667 7.95817 11.6667 7.49984C11.6667 7.0415 11.5036 6.64914 11.1772 6.32275C10.8508 5.99636 10.4584 5.83317 10.0001 5.83317C9.54175 5.83317 9.14939 5.99636 8.823 6.32275C8.49661 6.64914 8.33341 7.0415 8.33341 7.49984C8.33341 7.95817 8.49661 8.35053 8.823 8.67692C9.14939 9.00331 9.54175 9.1665 10.0001 9.1665ZM10.0001 18.3332C8.8473 18.3332 7.76397 18.1144 6.75008 17.6769C5.73619 17.2394 4.85425 16.6457 4.10425 15.8957C3.35425 15.1457 2.7605 14.2637 2.323 13.2498C1.8855 12.2359 1.66675 11.1526 1.66675 9.99984C1.66675 8.84706 1.8855 7.76373 2.323 6.74984C2.7605 5.73595 3.35425 4.854 4.10425 4.104C4.85425 3.354 5.73619 2.76025 6.75008 2.32275C7.76397 1.88525 8.8473 1.6665 10.0001 1.6665C11.1529 1.6665 12.2362 1.88525 13.2501 2.32275C14.264 2.76025 15.1459 3.354 15.8959 4.104C16.6459 4.854 17.2397 5.73595 17.6772 6.74984C18.1147 7.76373 18.3334 8.84706 18.3334 9.99984C18.3334 11.1526 18.1147 12.2359 17.6772 13.2498C17.2397 14.2637 16.6459 15.1457 15.8959 15.8957C15.1459 16.6457 14.264 17.2394 13.2501 17.6769C12.2362 18.1144 11.1529 18.3332 10.0001 18.3332ZM10.0001 16.6665C11.8612 16.6665 13.4376 16.0207 14.7292 14.729C16.0209 13.4373 16.6667 11.8609 16.6667 9.99984C16.6667 8.13873 16.0209 6.56234 14.7292 5.27067C13.4376 3.979 11.8612 3.33317 10.0001 3.33317C8.13897 3.33317 6.56258 3.979 5.27091 5.27067C3.97925 6.56234 3.33341 8.13873 3.33341 9.99984C3.33341 11.8609 3.97925 13.4373 5.27091 14.729C6.56258 16.0207 8.13897 16.6665 10.0001 16.6665Z" fill="white"/>
</svg>
