<svg width="12" height="12" viewBox="0 0 12 12" fill="none" xmlns="http://www.w3.org/2000/svg">
<path d="M9.8 10.5L6.65 7.35C6.4 7.55 6.1125 7.70833 5.7875 7.825C5.4625 7.94167 5.11667 8 4.75 8C3.84167 8 3.07292 7.68542 2.44375 7.05625C1.81458 6.42708 1.5 5.65833 1.5 4.75C1.5 3.84167 1.81458 3.07292 2.44375 2.44375C3.07292 1.81458 3.84167 1.5 4.75 1.5C5.65833 1.5 6.42708 1.81458 7.05625 2.44375C7.68542 3.07292 8 3.84167 8 4.75C8 5.11667 7.94167 5.4625 7.825 5.7875C7.70833 6.1125 7.55 6.4 7.35 6.65L10.5 9.8L9.8 10.5ZM4.75 7C5.375 7 5.90625 6.78125 6.34375 6.34375C6.78125 5.90625 7 5.375 7 4.75C7 4.125 6.78125 3.59375 6.34375 3.15625C5.90625 2.71875 5.375 2.5 4.75 2.5C4.125 2.5 3.59375 2.71875 3.15625 3.15625C2.71875 3.59375 2.5 4.125 2.5 4.75C2.5 5.375 2.71875 5.90625 3.15625 6.34375C3.59375 6.78125 4.125 7 4.75 7Z" fill="#01040A" fill-opacity="0.5"/>
</svg>
