<svg width="20" height="20" viewBox="0 0 20 20" fill="none" xmlns="http://www.w3.org/2000/svg">
<path d="M11.6666 8.25016V6.8335C12.1249 6.63905 12.5937 6.49322 13.0728 6.396C13.552 6.29877 14.0555 6.25016 14.5833 6.25016C14.9444 6.25016 15.2985 6.27794 15.6458 6.3335C15.993 6.38905 16.3333 6.4585 16.6666 6.54183V7.87516C16.3333 7.75016 15.9964 7.65641 15.6562 7.59391C15.3159 7.53141 14.9583 7.50016 14.5833 7.50016C14.0555 7.50016 13.5485 7.56613 13.0624 7.69808C12.5763 7.83002 12.111 8.01405 11.6666 8.25016ZM11.6666 12.8335V11.4168C12.1249 11.2224 12.5937 11.0766 13.0728 10.9793C13.552 10.8821 14.0555 10.8335 14.5833 10.8335C14.9444 10.8335 15.2985 10.8613 15.6458 10.9168C15.993 10.9724 16.3333 11.0418 16.6666 11.1252V12.4585C16.3333 12.3335 15.9964 12.2397 15.6562 12.1772C15.3159 12.1147 14.9583 12.0835 14.5833 12.0835C14.0555 12.0835 13.5485 12.146 13.0624 12.271C12.5763 12.396 12.111 12.5835 11.6666 12.8335ZM11.6666 10.5418V9.12516C12.1249 8.93072 12.5937 8.78488 13.0728 8.68766C13.552 8.59044 14.0555 8.54183 14.5833 8.54183C14.9444 8.54183 15.2985 8.56961 15.6458 8.62516C15.993 8.68072 16.3333 8.75016 16.6666 8.8335V10.1668C16.3333 10.0418 15.9964 9.94808 15.6562 9.88558C15.3159 9.82308 14.9583 9.79183 14.5833 9.79183C14.0555 9.79183 13.5485 9.8578 13.0624 9.98975C12.5763 10.1217 12.111 10.3057 11.6666 10.5418ZM5.41659 13.3335C6.06936 13.3335 6.70478 13.4064 7.32284 13.5522C7.94089 13.6981 8.55547 13.9168 9.16659 14.2085V6.00016C8.59714 5.66683 7.99297 5.41683 7.35409 5.25016C6.7152 5.0835 6.06936 5.00016 5.41659 5.00016C4.91659 5.00016 4.42006 5.04877 3.927 5.146C3.43395 5.24322 2.95825 5.38905 2.49992 5.5835V13.8335C2.98603 13.6668 3.46867 13.5418 3.94784 13.4585C4.427 13.3752 4.91659 13.3335 5.41659 13.3335ZM10.8333 14.2085C11.4444 13.9168 12.0589 13.6981 12.677 13.5522C13.2951 13.4064 13.9305 13.3335 14.5833 13.3335C15.0833 13.3335 15.5728 13.3752 16.052 13.4585C16.5312 13.5418 17.0138 13.6668 17.4999 13.8335V5.5835C17.0416 5.38905 16.5659 5.24322 16.0728 5.146C15.5798 5.04877 15.0833 5.00016 14.5833 5.00016C13.9305 5.00016 13.2846 5.0835 12.6458 5.25016C12.0069 5.41683 11.4027 5.66683 10.8333 6.00016V14.2085ZM9.99992 16.6668C9.33325 16.1391 8.61103 15.7293 7.83325 15.4377C7.05547 15.146 6.24992 15.0002 5.41659 15.0002C4.83325 15.0002 4.26034 15.0766 3.69784 15.2293C3.13534 15.3821 2.59714 15.5974 2.08325 15.8752C1.79159 16.0279 1.51034 16.021 1.2395 15.8543C0.968669 15.6877 0.833252 15.4446 0.833252 15.1252V5.0835C0.833252 4.93072 0.871446 4.78488 0.947835 4.646C1.02422 4.50711 1.13881 4.40294 1.29159 4.3335C1.93047 4.00016 2.59714 3.75016 3.29159 3.5835C3.98603 3.41683 4.69436 3.3335 5.41659 3.3335C6.22214 3.3335 7.01034 3.43766 7.78117 3.646C8.552 3.85433 9.29159 4.16683 9.99992 4.5835C10.7083 4.16683 11.4478 3.85433 12.2187 3.646C12.9895 3.43766 13.7777 3.3335 14.5833 3.3335C15.3055 3.3335 16.0138 3.41683 16.7083 3.5835C17.4027 3.75016 18.0694 4.00016 18.7083 4.3335C18.861 4.40294 18.9756 4.50711 19.052 4.646C19.1284 4.78488 19.1666 4.93072 19.1666 5.0835V15.1252C19.1666 15.4446 19.0312 15.6877 18.7603 15.8543C18.4895 16.021 18.2083 16.0279 17.9166 15.8752C17.4027 15.5974 16.8645 15.3821 16.302 15.2293C15.7395 15.0766 15.1666 15.0002 14.5833 15.0002C13.7499 15.0002 12.9444 15.146 12.1666 15.4377C11.3888 15.7293 10.6666 16.1391 9.99992 16.6668Z" fill="white"/>
</svg>
