<svg width="400" height="200" viewBox="0 0 400 200" xmlns="http://www.w3.org/2000/svg">
  <!-- Background -->
  <rect width="400" height="200" fill="#7E22CE" />
  
  <!-- Phone frame -->
  <rect x="135" y="20" width="130" height="160" rx="10" fill="#1E1B4B" />
  <rect x="145" y="30" width="110" height="140" rx="3" fill="#FFFFFF" />
  
  <!-- Social media elements -->
  <rect x="155" y="40" width="90" height="15" rx="7.5" fill="#F3F4F6" />
  
  <!-- Post 1 -->
  <rect x="155" y="65" width="90" height="30" rx="2" fill="#F9A8D4" />
  <circle cx="165" cy="75" r="5" fill="#FFFFFF" />
  <rect x="175" y="70" width="60" height="3" rx="1.5" fill="#FFFFFF" />
  <rect x="175" y="77" width="40" height="3" rx="1.5" fill="#FFFFFF" />
  <rect x="175" y="84" width="50" height="3" rx="1.5" fill="#FFFFFF" />
  
  <!-- Post 2 -->
  <rect x="155" y="105" width="90" height="30" rx="2" fill="#93C5FD" />
  <circle cx="165" cy="115" r="5" fill="#FFFFFF" />
  <rect x="175" y="110" width="60" height="3" rx="1.5" fill="#FFFFFF" />
  <rect x="175" y="117" width="40" height="3" rx="1.5" fill="#FFFFFF" />
  <rect x="175" y="124" width="50" height="3" rx="1.5" fill="#FFFFFF" />
  
  <!-- Like, comment, share indicators -->
  <rect x="155" y="145" width="90" height="15" rx="2" fill="#F3F4F6" />
  <circle cx="170" cy="152.5" r="5" fill="#EC4899" />
  <circle cx="190" cy="152.5" r="5" fill="#6366F1" />
  <circle cx="210" cy="152.5" r="5" fill="#10B981" />
  
  <!-- Social media platform icons surrounding the phone -->
  <circle cx="80" cy="60" r="15" fill="#1D4ED8" />
  <rect x="75" y="55" width="10" height="10" fill="#FFFFFF" />
  
  <circle cx="80" cy="100" r="15" fill="#7DD3FC" />
  <path d="M74 103 L80 97 L86 103" stroke="#FFFFFF" stroke-width="2" fill="none" />
  
  <circle cx="80" cy="140" r="15" fill="#DC2626" />
  <rect x="75" y="135" width="10" height="10" rx="2" fill="#FFFFFF" />
  
  <circle cx="320" cy="60" r="15" fill="#65A30D" />
  <circle cx="320" cy="60" r="7" fill="#FFFFFF" />
  
  <circle cx="320" cy="100" r="15" fill="#FB923C" />
  <rect x="315" y="95" width="10" height="10" rx="5" fill="#FFFFFF" />
  
  <circle cx="320" cy="140" r="15" fill="#DB2777" />
  <circle cx="320" cy="140" r="7" fill="#FFFFFF" />
</svg>